<?xml version="1.0" encoding="UTF-8" standalone="no"?>
<svg
   version="1.1"
   x="0px"
   y="0px"
   viewBox="0 0 100 125"
   style="enable-background:new 0 0 100 100;"
   xml:space="preserve"
   id="svg2"
   sodipodi:docname="noun-key-6444670.svg"
   inkscape:version="1.3 (0e150ed6c4, 2023-07-21)"
   xmlns:inkscape="http://www.inkscape.org/namespaces/inkscape"
   xmlns:sodipodi="http://sodipodi.sourceforge.net/DTD/sodipodi-0.dtd"
   xmlns="http://www.w3.org/2000/svg"
   xmlns:svg="http://www.w3.org/2000/svg"><defs
     id="defs2" /><sodipodi:namedview
     id="namedview2"
     pagecolor="#ffffff"
     bordercolor="#000000"
     borderopacity="0.25"
     inkscape:showpageshadow="2"
     inkscape:pageopacity="0.0"
     inkscape:pagecheckerboard="0"
     inkscape:deskcolor="#d1d1d1"
     inkscape:zoom="4.8705515"
     inkscape:cx="34.390356"
     inkscape:cy="53.895334"
     inkscape:window-width="1759"
     inkscape:window-height="1057"
     inkscape:window-x="153"
     inkscape:window-y="-8"
     inkscape:window-maximized="1"
     inkscape:current-layer="svg2" /><rect
     style="fill:#ffcc00;fill-opacity:1;stroke-width:0.001;stroke:none;stroke-dasharray:none"
     id="rect2"
     width="120"
     height="120"
     x="-0.87107992"
     y="-5.9523811"
     inkscape:export-filename="icon16.png"
     inkscape:export-xdpi="12.8"
     inkscape:export-ydpi="12.8" /><path
     d="M 53.318553,6.5956909 V 54.695691 c -12.8,3.1 -20.6,15.9 -17.5,28.6 2.6,10.8 12.4,18.399999 23.5,18.199999 13.1,0 23.8,-10.599999 23.8,-23.699999 0,-10.9 -7.3,-20.4 -17.9,-23.1 v -18.4 h 11.9 v -8.9 h -11.9 v -8.9 h 17.8 V 6.5956909 Z m 5,59.4000001 c 0.2,0 0.3,0 0.5,0 0.2,0 0.3,0 0.5,0 6.6,0 11.9,5.3 11.9,11.9 0,6.6 -5.3,11.9 -11.9,11.9 -6.6,0.2 -12.1,-4.9 -12.3,-11.5 -0.2,-6.6 4.8,-12 11.3,-12.3 z"
     id="path1" /></svg>
